<svg width="22" height="23" viewBox="0 0 22 23" fill="none" xmlns="http://www.w3.org/2000/svg">
<path d="M11.2368 14.6641C13.538 14.6641 15.4035 12.7987 15.4035 10.4975C15.4035 8.19629 13.538 6.33081 11.2368 6.33081C8.93563 6.33081 7.07015 8.19629 7.07015 10.4975C7.07015 12.7987 8.93563 14.6641 11.2368 14.6641ZM11.2368 14.6641C9.85179 14.6641 8.49382 15.047 7.31342 15.7716C6.13302 16.4961 5.17631 17.5333 4.54932 18.7683M11.2368 14.6641C12.6218 14.6641 13.9798 15.047 15.1602 15.7716C16.3406 16.4961 17.2973 17.5333 17.9243 18.7683M21.2368 11.3308C21.2368 16.8537 16.7597 21.3308 11.2368 21.3308C5.71397 21.3308 1.23682 16.8537 1.23682 11.3308C1.23682 5.80796 5.71397 1.33081 11.2368 1.33081C16.7597 1.33081 21.2368 5.80796 21.2368 11.3308Z" stroke="white" stroke-width="1.5" stroke-linecap="round" stroke-linejoin="round"/>
</svg>
